# Blender 3.3.1
# www.blender.org
mtllib Projectile.mtl
o Gem
v 0.828704 3.794779 -0.003183
v -0.828703 3.794780 -0.003183
v -1.657407 2.359424 -0.003183
v -0.828704 1.033641 0.157566
v 0.828703 1.033641 0.157566
v 1.657407 2.359424 -0.003183
v -0.000000 2.359424 -2.436700
v -0.000000 2.359423 2.439916
v -0.217705 4.064632 -0.003183
v -0.666452 1.024575 -0.331725
v 0.824074 1.073321 -0.260230
v -0.292050 3.183634 -1.425946
v -0.384964 3.144547 -1.425946
v -0.859811 2.518607 -1.425946
v -0.872418 2.418596 -1.425946
v -0.567762 1.694396 -1.425946
v -0.487454 1.633473 -1.425946
v 0.292050 1.535214 -1.425946
v 0.384964 1.574301 -1.425946
v 0.859811 2.200242 -1.425946
v 0.872418 2.300252 -1.425946
v 0.567762 3.024452 -1.425946
v 0.487454 3.085375 -1.425946
v 0.442254 3.555392 -0.785703
v -0.814611 3.340411 -0.785703
v -1.256864 2.144443 -0.785703
v -0.369241 1.208685 -0.933546
v 0.812528 1.445602 -0.901375
v 1.256864 2.574405 -0.785703
v 0.069337 2.909481 -1.880785
v -0.441695 2.694500 -1.880785
v -0.511031 2.144443 -1.880785
v -0.069337 1.809367 -1.880785
v 0.441695 2.024348 -1.880785
v 0.511031 2.574405 -1.880785
v -0.539662 3.461844 -0.785703
v 0.432658 3.177804 1.039328
v 0.132216 3.275643 1.039328
v -0.414384 3.213467 1.039328
v -0.582457 3.062335 1.039328
v -0.432658 1.541043 1.039328
v -0.132216 1.443204 1.039328
v 0.492410 1.575541 1.039328
v 0.727362 1.786811 1.039328
v 0.925068 2.393921 1.039328
v 0.859578 2.703030 1.039328
v 0.799109 3.319551 0.674449
v -0.431940 3.531537 0.674449
v -0.799109 1.437647 0.730712
v 0.431941 1.225662 0.730711
v 1.231050 2.147439 0.674449
v 0.509063 2.817176 1.529533
v -0.141894 3.029161 1.529533
v -0.509063 1.901670 1.529533
v 0.141894 1.689686 1.529533
v 0.650957 2.147438 1.529533
v -0.218091 3.625984 0.674449
v -0.829060 2.686015 1.039328
v -0.872361 2.514588 1.039328
v -0.873981 2.083799 1.039328
v -0.832070 1.885980 1.039328
v -0.506053 2.701707 1.529533
v -1.086145 2.701708 0.674449
v -1.179963 2.330283 0.674449
v -0.599871 2.330282 1.529533
vn -0.8052 -0.5344 -0.2571
vn 0.0162 -0.9994 -0.0309
vn 0.8431 -0.5343 -0.0601
vn 0.1059 0.8403 -0.5317
vn 0.6249 0.5619 0.5421
vn -0.5413 -0.6267 0.5606
vn -0.7130 0.5409 -0.4462
vn -0.3539 0.8012 -0.4826
vn -0.6467 0.4906 -0.5841
vn 0.2303 0.8929 -0.3869
vn -0.0767 0.8049 -0.5885
vn -0.3397 0.8075 -0.4823
vn -0.0859 0.9012 -0.4248
vn -0.2935 0.6976 -0.6536
vn -0.7807 -0.3284 -0.5317
vn -0.3557 0.8054 -0.4741
vn -0.1040 -0.8247 -0.5559
vn -0.8281 0.4781 -0.2925
vn -0.8130 0.3006 -0.4987
vn -0.8722 0.1099 -0.4766
vn -0.8771 0.3243 -0.3544
vn -0.7509 0.0946 -0.6536
vn -0.7509 0.0947 -0.6536
vn 0.6653 -0.5047 -0.5501
vn -0.8042 -0.5317 -0.2656
vn -0.7325 -0.5492 -0.4023
vn -0.5313 -0.7004 -0.4766
vn -0.4574 -0.6029 -0.6536
vn 0.7807 0.3284 -0.5317
vn 0.0445 -0.9612 -0.2721
vn 0.1836 -0.8486 -0.4961
vn 0.1934 -0.9171 -0.3485
vn 0.3409 -0.8103 -0.4766
vn 0.2935 -0.6976 -0.6536
vn 0.4574 0.6029 -0.6536
vn 0.8281 0.4781 -0.2925
vn 0.6668 0.5537 -0.4987
vn 0.5313 0.7004 -0.4766
vn 0.7194 0.5974 -0.3544
vn 0.8281 -0.4781 -0.2925
vn 0.8237 -0.2733 -0.4967
vn 0.8722 -0.1099 -0.4766
vn 0.8786 -0.3085 -0.3646
vn 0.7509 -0.0946 -0.6536
vn 0.7509 -0.0947 -0.6536
vn -0.3129 0.7084 0.6326
vn -0.1036 0.9107 0.4000
vn -0.0775 0.6810 0.7282
vn -0.7275 0.4767 0.4935
vn 0.2595 0.7968 0.5457
vn 0.2116 0.8204 0.5312
vn 0.2278 0.8023 0.5517
vn 0.2560 0.7862 0.5625
vn -0.3477 0.7872 0.5094
vn 0.1743 -0.8227 0.5412
vn 0.7990 -0.2602 0.5421
vn -0.2595 -0.7968 0.5457
vn -0.0000 -0.9482 0.3177
vn -0.0806 -0.8781 0.4716
vn -0.2553 -0.7840 0.5658
vn 0.8073 0.4661 0.3621
vn 0.7934 0.3658 0.4866
vn 0.8088 0.1714 0.5625
vn 0.8198 0.1737 0.5457
vn 0.5603 -0.6231 0.5457
vn 0.8088 -0.4614 0.3646
vn 0.7136 -0.4901 0.5006
vn 0.5447 -0.6057 0.5800
vn -0.5603 0.6231 0.5457
vn -0.7815 0.4512 0.4309
vn -0.7135 0.4828 0.5077
vn -0.5528 0.6148 0.5625
vn -0.8275 0.0031 0.5614
vn -0.7541 -0.4091 0.5137
vn -0.8181 -0.3901 0.4226
vn -0.9599 -0.2034 0.1929
vn -0.8198 -0.1737 0.5457
vn -0.8199 0.2071 0.5337
vn -0.8200 0.2071 0.5337
vn -0.7967 0.2012 0.5700
vt 0.202645 0.468741
vt 0.336741 0.466357
vt 0.514989 0.472355
vt 0.606341 0.514577
vt 0.650800 0.673877
vt 0.694554 0.808275
vt 0.012385 0.481968
vt 0.756030 0.964704
vt 0.996480 0.628517
vt 0.266907 0.076329
vt 0.256785 0.812041
vt 0.375627 0.829242
vt 0.288580 0.467813
vt 0.696464 0.670420
vt 0.729996 0.798611
vt 0.310902 0.293039
vt 0.324922 0.291379
vt 0.435984 0.269016
vt 0.838313 0.497133
vt 0.831773 0.510037
vt 0.815465 0.613446
vt 0.816696 0.626199
vt 0.842443 0.721551
vt 0.847762 0.732624
vt 0.904207 0.818031
vt 0.066928 0.213966
vt 0.080807 0.226943
vt 0.190541 0.283845
vt 0.204554 0.287128
vt 0.223195 0.386411
vt 0.363159 0.382028
vt 0.515180 0.354882
vt 0.717174 0.524362
vt 0.762746 0.672046
vt 0.800419 0.792524
vt 0.058540 0.365707
vt 0.860708 0.918625
vt 0.264107 0.213822
vt 0.355154 0.193645
vt 0.939610 0.522217
vt 0.890850 0.584319
vt 0.890864 0.659512
vt 0.931784 0.727459
vt 0.123322 0.105617
vt 0.180473 0.185334
vt 0.329631 0.381865
vt 0.214301 0.592602
vt 0.251778 0.589378
vt 0.323443 0.591306
vt 0.350861 0.597813
vt 0.561347 0.725536
vt 0.575819 0.758320
vt 0.594635 0.832278
vt 0.598608 0.870761
vt 0.593811 0.957623
vt 0.094928 0.633853
vt 0.133249 0.615085
vt 0.182319 0.546812
vt 0.312470 0.542179
vt 0.584306 0.682995
vt 0.630286 0.799503
vt 0.658466 0.933842
vt 0.196571 0.667261
vt 0.286958 0.657838
vt 0.490356 0.729704
vt 0.525048 0.808664
vt 0.120202 0.722733
vt 0.519575 0.900389
vt 0.290536 0.538756
vt 0.407727 0.616909
vt 0.447885 0.604442
vt 0.469860 0.617188
vt 0.515325 0.651595
vt 0.530603 0.669367
vt 0.349262 0.684573
vt 0.396156 0.675734
vt 0.437010 0.562006
vt 0.491674 0.556313
vt 0.531605 0.586734
vt 0.445357 0.695887
s 0
usemtl phong3SG
f 3/4/1 10/14/1 4/5/1
f 10/14/2 11/15/2 5/6/2 4/5/2
f 11/15/3 6/8/3 5/6/3
f 30/38/4 12/16/4 24/30/4 23/29/4
f 47/58/5 37/47/5 52/63/5 46/57/5
f 61/74/6 49/60/6 41/51/6 54/65/6
f 31/39/7 14/18/7 13/17/7
f 36/46/8 13/17/8 25/31/8
f 13/17/9 14/18/9 25/31/9
f 1/1/10 24/30/10 9/13/10
f 9/13/11 24/30/11 36/46/11
f 13/17/12 36/46/12 12/16/12
f 24/30/13 12/16/13 36/46/13
f 7/10/14 31/39/14 30/38/14
f 13/17/14 12/16/14 31/39/14
f 31/39/14 12/16/14 30/38/14
f 32/41/15 16/21/15 26/33/15 15/20/15
f 9/13/16 36/46/16 25/31/16 2/2/16
f 33/42/17 18/23/17 27/34/17 17/22/17
f 2/2/18 25/31/18 3/3/18
f 3/3/19 25/31/19 26/32/19
f 15/20/20 26/33/20 14/19/20
f 25/31/21 14/18/21 26/32/21
f 7/9/22 32/41/22 31/40/22
f 15/20/23 14/19/23 32/41/23
f 32/41/22 14/19/22 31/40/22
f 34/43/24 20/25/24 28/35/24 19/24/24
f 3/4/25 26/33/25 10/14/25
f 26/33/26 16/21/26 10/14/26
f 16/21/27 17/22/27 10/14/27
f 17/22/27 27/34/27 10/14/27
f 7/9/28 33/42/28 32/41/28
f 17/22/28 16/21/28 33/42/28
f 33/42/28 16/21/28 32/41/28
f 35/45/29 22/28/29 29/36/29 21/27/29
f 10/14/30 27/34/30 11/15/30
f 11/15/31 27/34/31 28/35/31
f 27/34/32 18/23/32 28/35/32
f 18/23/33 19/24/33 28/35/33
f 7/9/34 34/43/34 33/42/34
f 19/24/34 18/23/34 34/43/34
f 34/43/34 18/23/34 33/42/34
f 7/10/35 30/38/35 35/45/35
f 23/29/35 22/28/35 30/38/35
f 30/38/35 22/28/35 35/45/35
f 6/7/36 29/36/36 1/1/36
f 1/1/37 29/36/37 24/30/37
f 23/29/38 24/30/38 22/28/38
f 29/36/39 22/28/39 24/30/39
f 11/15/40 28/35/40 6/8/40
f 6/8/41 28/35/41 29/37/41
f 21/27/42 29/36/42 20/26/42
f 28/35/43 20/25/43 29/37/43
f 7/10/44 35/45/44 34/44/44
f 21/27/45 20/26/45 35/45/45
f 35/45/44 20/26/44 34/44/44
f 48/59/46 39/49/46 57/69/46
f 53/64/47 38/48/47 39/49/47
f 39/49/48 38/48/48 57/69/48
f 62/75/49 40/50/49 63/77/49 58/70/49
f 37/47/50 38/48/50 52/63/50
f 8/11/50 52/63/50 53/64/50
f 52/63/50 38/48/50 53/64/50
f 9/13/51 57/69/51 1/1/51
f 57/69/52 38/48/52 1/1/52
f 38/48/53 37/47/53 1/1/53
f 37/47/53 47/58/53 1/1/53
f 2/2/54 48/59/54 57/69/54 9/13/54
f 50/61/55 43/53/55 55/66/55 42/52/55
f 51/62/56 45/55/56 56/68/56 44/54/56
f 42/52/57 55/66/57 41/51/57
f 8/12/57 54/65/57 55/66/57
f 54/65/57 41/51/57 55/66/57
f 5/6/58 50/61/58 4/5/58
f 50/61/59 42/52/59 4/5/59
f 42/52/60 41/51/60 4/5/60
f 41/51/60 49/60/60 4/5/60
f 1/1/61 47/58/61 6/7/61
f 47/58/62 46/57/62 6/7/62
f 46/57/63 45/56/63 6/7/63
f 45/55/63 51/62/63 6/8/63
f 46/57/64 52/63/64 45/56/64
f 8/11/64 56/67/64 52/63/64
f 56/67/64 45/56/64 52/63/64
f 44/54/65 56/68/65 43/53/65
f 8/12/65 55/66/65 56/68/65
f 55/66/65 43/53/65 56/68/65
f 6/8/66 51/62/66 5/6/66
f 51/62/67 44/54/67 5/6/67
f 44/54/68 43/53/68 5/6/68
f 43/53/68 50/61/68 5/6/68
f 40/50/69 62/75/69 39/49/69
f 8/11/69 53/64/69 62/75/69
f 53/64/69 39/49/69 62/75/69
f 3/3/70 63/77/70 2/2/70
f 63/77/71 40/50/71 2/2/71
f 40/50/72 39/49/72 2/2/72
f 39/49/72 48/59/72 2/2/72
f 64/79/73 60/73/73 65/80/73 59/72/73
f 3/4/74 4/5/74 64/79/74
f 64/79/75 4/5/75 60/73/75
f 60/73/76 4/5/76 61/74/76
f 4/5/76 49/60/76 61/74/76
f 60/73/77 61/74/77 65/80/77
f 8/12/77 65/80/77 54/65/77
f 65/80/77 61/74/77 54/65/77
f 59/72/78 65/80/78 58/71/78
f 8/12/79 62/76/79 65/80/79
f 62/76/79 58/71/79 65/80/79
f 58/71/80 63/78/80 59/72/80
f 3/4/80 64/79/80 63/78/80
f 64/79/80 59/72/80 63/78/80
